<mxfile host="app.diagrams.net" agent="Mozilla/5.0 (X11; Linux x86_64; rv:134.0) Gecko/20100101 Firefox/134.0" version="26.1.0">
  <diagram name="Page-1" id="G3Mza58gHzZ2Si0KtqzY">
    <mxGraphModel dx="1185" dy="657" grid="1" gridSize="10" guides="1" tooltips="1" connect="1" arrows="1" fold="1" page="1" pageScale="1" pageWidth="850" pageHeight="1100" math="0" shadow="0">
      <root>
        <mxCell id="0" />
        <mxCell id="1" parent="0" />
        <mxCell id="8AFJEiIQBA_v1RYh4N0m-30" value="" style="group" vertex="1" connectable="0" parent="1">
          <mxGeometry x="95" y="460" width="210" height="130" as="geometry" />
        </mxCell>
        <mxCell id="8AFJEiIQBA_v1RYh4N0m-31" value="" style="rounded=0;whiteSpace=wrap;html=1;" vertex="1" parent="8AFJEiIQBA_v1RYh4N0m-30">
          <mxGeometry width="210" height="130" as="geometry" />
        </mxCell>
        <mxCell id="8AFJEiIQBA_v1RYh4N0m-32" value="HEAD B" style="text;html=1;align=center;verticalAlign=middle;resizable=0;points=[];autosize=1;strokeColor=none;fillColor=none;" vertex="1" parent="8AFJEiIQBA_v1RYh4N0m-30">
          <mxGeometry x="60" width="70" height="30" as="geometry" />
        </mxCell>
        <mxCell id="8AFJEiIQBA_v1RYh4N0m-33" value="&lt;div&gt;0X45&lt;/div&gt;" style="rounded=0;whiteSpace=wrap;html=1;" vertex="1" parent="8AFJEiIQBA_v1RYh4N0m-30">
          <mxGeometry width="60" height="10" as="geometry" />
        </mxCell>
        <mxCell id="8AFJEiIQBA_v1RYh4N0m-21" value="" style="group" vertex="1" connectable="0" parent="1">
          <mxGeometry x="95" y="160" width="210" height="130" as="geometry" />
        </mxCell>
        <mxCell id="8AFJEiIQBA_v1RYh4N0m-19" value="" style="rounded=0;whiteSpace=wrap;html=1;" vertex="1" parent="8AFJEiIQBA_v1RYh4N0m-21">
          <mxGeometry width="210" height="130" as="geometry" />
        </mxCell>
        <mxCell id="8AFJEiIQBA_v1RYh4N0m-17" value="HEAD A" style="text;html=1;align=center;verticalAlign=middle;resizable=0;points=[];autosize=1;strokeColor=none;fillColor=none;" vertex="1" parent="8AFJEiIQBA_v1RYh4N0m-21">
          <mxGeometry x="60" width="70" height="30" as="geometry" />
        </mxCell>
        <mxCell id="8AFJEiIQBA_v1RYh4N0m-20" value="0X25" style="rounded=0;whiteSpace=wrap;html=1;" vertex="1" parent="8AFJEiIQBA_v1RYh4N0m-21">
          <mxGeometry width="60" height="10" as="geometry" />
        </mxCell>
        <mxCell id="8AFJEiIQBA_v1RYh4N0m-22" value="" style="group;movable=1;resizable=1;rotatable=1;deletable=1;editable=1;locked=0;connectable=1;" vertex="1" connectable="0" parent="1">
          <mxGeometry x="120" y="280" width="160" height="110" as="geometry" />
        </mxCell>
        <mxCell id="8AFJEiIQBA_v1RYh4N0m-1" value="&lt;div&gt;next&lt;/div&gt;&lt;div&gt;=&lt;/div&gt;&lt;div&gt;0x03&lt;br&gt;&lt;/div&gt;" style="swimlane;fontStyle=0;childLayout=stackLayout;horizontal=1;startSize=30;horizontalStack=0;resizeParent=1;resizeParentMax=0;resizeLast=0;collapsible=1;marginBottom=0;whiteSpace=wrap;html=1;direction=south;movable=1;resizable=1;rotatable=1;deletable=1;editable=1;locked=0;connectable=1;" vertex="1" parent="8AFJEiIQBA_v1RYh4N0m-22">
          <mxGeometry y="10" width="160" height="100" as="geometry" />
        </mxCell>
        <mxCell id="8AFJEiIQBA_v1RYh4N0m-2" value="1" style="text;strokeColor=none;fillColor=none;align=left;verticalAlign=middle;spacingLeft=4;spacingRight=4;overflow=hidden;points=[[0,0.5],[1,0.5]];portConstraint=eastwest;rotatable=1;whiteSpace=wrap;html=1;movable=1;resizable=1;deletable=1;editable=1;locked=0;connectable=1;" vertex="1" parent="8AFJEiIQBA_v1RYh4N0m-1">
          <mxGeometry y="30" width="160" height="30" as="geometry" />
        </mxCell>
        <mxCell id="8AFJEiIQBA_v1RYh4N0m-3" value="place" style="text;strokeColor=none;fillColor=none;align=left;verticalAlign=middle;spacingLeft=4;spacingRight=4;overflow=hidden;points=[[0,0.5],[1,0.5]];portConstraint=eastwest;rotatable=1;whiteSpace=wrap;html=1;movable=1;resizable=1;deletable=1;editable=1;locked=0;connectable=1;" vertex="1" parent="8AFJEiIQBA_v1RYh4N0m-1">
          <mxGeometry y="60" width="160" height="40" as="geometry" />
        </mxCell>
        <mxCell id="8AFJEiIQBA_v1RYh4N0m-5" value="&lt;font style=&quot;font-size: 8px;&quot;&gt;0x02&lt;/font&gt;" style="rounded=0;whiteSpace=wrap;html=1;movable=0;resizable=0;rotatable=0;deletable=0;editable=0;locked=1;connectable=0;" vertex="1" parent="8AFJEiIQBA_v1RYh4N0m-22">
          <mxGeometry x="130" width="30" height="10" as="geometry" />
        </mxCell>
        <mxCell id="8AFJEiIQBA_v1RYh4N0m-6" value="&lt;font style=&quot;font-size: 8px;&quot;&gt;0x01&lt;/font&gt;" style="rounded=0;whiteSpace=wrap;html=1;movable=0;resizable=0;rotatable=0;deletable=0;editable=0;locked=1;connectable=0;" vertex="1" parent="8AFJEiIQBA_v1RYh4N0m-22">
          <mxGeometry width="130" height="10" as="geometry" />
        </mxCell>
        <mxCell id="8AFJEiIQBA_v1RYh4N0m-23" value="" style="group;movable=1;resizable=1;rotatable=1;deletable=1;editable=1;locked=0;connectable=1;" vertex="1" connectable="0" parent="1">
          <mxGeometry x="120" y="580" width="160" height="110" as="geometry" />
        </mxCell>
        <mxCell id="8AFJEiIQBA_v1RYh4N0m-24" value="&lt;div&gt;next&lt;/div&gt;&lt;div&gt;=&lt;/div&gt;&lt;div&gt;0x11&lt;br&gt;&lt;/div&gt;" style="swimlane;fontStyle=0;childLayout=stackLayout;horizontal=1;startSize=30;horizontalStack=0;resizeParent=1;resizeParentMax=0;resizeLast=0;collapsible=1;marginBottom=0;whiteSpace=wrap;html=1;direction=south;movable=1;resizable=1;rotatable=1;deletable=1;editable=1;locked=0;connectable=1;" vertex="1" parent="8AFJEiIQBA_v1RYh4N0m-23">
          <mxGeometry y="10" width="160" height="100" as="geometry" />
        </mxCell>
        <mxCell id="8AFJEiIQBA_v1RYh4N0m-25" value="4" style="text;strokeColor=none;fillColor=none;align=left;verticalAlign=middle;spacingLeft=4;spacingRight=4;overflow=hidden;points=[[0,0.5],[1,0.5]];portConstraint=eastwest;rotatable=1;whiteSpace=wrap;html=1;movable=1;resizable=1;deletable=1;editable=1;locked=0;connectable=1;" vertex="1" parent="8AFJEiIQBA_v1RYh4N0m-24">
          <mxGeometry y="30" width="160" height="30" as="geometry" />
        </mxCell>
        <mxCell id="8AFJEiIQBA_v1RYh4N0m-26" value="place" style="text;strokeColor=none;fillColor=none;align=left;verticalAlign=middle;spacingLeft=4;spacingRight=4;overflow=hidden;points=[[0,0.5],[1,0.5]];portConstraint=eastwest;rotatable=1;whiteSpace=wrap;html=1;movable=1;resizable=1;deletable=1;editable=1;locked=0;connectable=1;" vertex="1" parent="8AFJEiIQBA_v1RYh4N0m-24">
          <mxGeometry y="60" width="160" height="40" as="geometry" />
        </mxCell>
        <mxCell id="8AFJEiIQBA_v1RYh4N0m-27" value="&lt;font style=&quot;font-size: 8px;&quot;&gt;0x10&lt;/font&gt;" style="rounded=0;whiteSpace=wrap;html=1;movable=1;resizable=1;rotatable=1;deletable=1;editable=1;locked=0;connectable=1;" vertex="1" parent="8AFJEiIQBA_v1RYh4N0m-23">
          <mxGeometry x="130" width="30" height="10" as="geometry" />
        </mxCell>
        <mxCell id="8AFJEiIQBA_v1RYh4N0m-28" value="&lt;font style=&quot;font-size: 8px;&quot;&gt;0x09&lt;/font&gt;" style="rounded=0;whiteSpace=wrap;html=1;movable=1;resizable=1;rotatable=1;deletable=1;editable=1;locked=0;connectable=1;" vertex="1" parent="8AFJEiIQBA_v1RYh4N0m-23">
          <mxGeometry width="130" height="10" as="geometry" />
        </mxCell>
        <mxCell id="8AFJEiIQBA_v1RYh4N0m-34" value="" style="group;movable=1;resizable=1;rotatable=1;deletable=1;editable=1;locked=0;connectable=1;" vertex="1" connectable="0" parent="1">
          <mxGeometry x="390" y="580" width="160" height="110" as="geometry" />
        </mxCell>
        <mxCell id="8AFJEiIQBA_v1RYh4N0m-35" value="&lt;div&gt;next&lt;/div&gt;&lt;div&gt;=&lt;/div&gt;&lt;div&gt;0x13&lt;br&gt;&lt;/div&gt;" style="swimlane;fontStyle=0;childLayout=stackLayout;horizontal=1;startSize=30;horizontalStack=0;resizeParent=1;resizeParentMax=0;resizeLast=0;collapsible=1;marginBottom=0;whiteSpace=wrap;html=1;direction=south;movable=1;resizable=1;rotatable=1;deletable=1;editable=1;locked=0;connectable=1;" vertex="1" parent="8AFJEiIQBA_v1RYh4N0m-34">
          <mxGeometry y="10" width="160" height="100" as="geometry" />
        </mxCell>
        <mxCell id="8AFJEiIQBA_v1RYh4N0m-36" value="5" style="text;strokeColor=none;fillColor=none;align=left;verticalAlign=middle;spacingLeft=4;spacingRight=4;overflow=hidden;points=[[0,0.5],[1,0.5]];portConstraint=eastwest;rotatable=1;whiteSpace=wrap;html=1;movable=1;resizable=1;deletable=1;editable=1;locked=0;connectable=1;" vertex="1" parent="8AFJEiIQBA_v1RYh4N0m-35">
          <mxGeometry y="30" width="160" height="30" as="geometry" />
        </mxCell>
        <mxCell id="8AFJEiIQBA_v1RYh4N0m-37" value="place" style="text;strokeColor=none;fillColor=none;align=left;verticalAlign=middle;spacingLeft=4;spacingRight=4;overflow=hidden;points=[[0,0.5],[1,0.5]];portConstraint=eastwest;rotatable=1;whiteSpace=wrap;html=1;movable=1;resizable=1;deletable=1;editable=1;locked=0;connectable=1;" vertex="1" parent="8AFJEiIQBA_v1RYh4N0m-35">
          <mxGeometry y="60" width="160" height="40" as="geometry" />
        </mxCell>
        <mxCell id="8AFJEiIQBA_v1RYh4N0m-38" value="&lt;font style=&quot;font-size: 8px;&quot;&gt;0x12&lt;/font&gt;" style="rounded=0;whiteSpace=wrap;html=1;movable=1;resizable=1;rotatable=1;deletable=1;editable=1;locked=0;connectable=1;" vertex="1" parent="8AFJEiIQBA_v1RYh4N0m-34">
          <mxGeometry x="130" width="30" height="10" as="geometry" />
        </mxCell>
        <mxCell id="8AFJEiIQBA_v1RYh4N0m-39" value="&lt;font style=&quot;font-size: 8px;&quot;&gt;0x11&lt;/font&gt;" style="rounded=0;whiteSpace=wrap;html=1;movable=1;resizable=1;rotatable=1;deletable=1;editable=1;locked=0;connectable=1;" vertex="1" parent="8AFJEiIQBA_v1RYh4N0m-34">
          <mxGeometry width="130" height="10" as="geometry" />
        </mxCell>
        <mxCell id="8AFJEiIQBA_v1RYh4N0m-40" value="" style="group;movable=1;resizable=1;rotatable=1;deletable=1;editable=1;locked=0;connectable=1;" vertex="1" connectable="0" parent="1">
          <mxGeometry x="650" y="580" width="160" height="110" as="geometry" />
        </mxCell>
        <mxCell id="8AFJEiIQBA_v1RYh4N0m-41" value="&lt;div&gt;next&lt;/div&gt;&lt;div&gt;=&lt;/div&gt;&lt;div&gt;0x015&lt;br&gt;&lt;/div&gt;" style="swimlane;fontStyle=0;childLayout=stackLayout;horizontal=1;startSize=30;horizontalStack=0;resizeParent=1;resizeParentMax=0;resizeLast=0;collapsible=1;marginBottom=0;whiteSpace=wrap;html=1;direction=south;movable=1;resizable=1;rotatable=1;deletable=1;editable=1;locked=0;connectable=1;" vertex="1" parent="8AFJEiIQBA_v1RYh4N0m-40">
          <mxGeometry y="10" width="160" height="100" as="geometry" />
        </mxCell>
        <mxCell id="8AFJEiIQBA_v1RYh4N0m-42" value="6" style="text;strokeColor=none;fillColor=none;align=left;verticalAlign=middle;spacingLeft=4;spacingRight=4;overflow=hidden;points=[[0,0.5],[1,0.5]];portConstraint=eastwest;rotatable=1;whiteSpace=wrap;html=1;movable=1;resizable=1;deletable=1;editable=1;locked=0;connectable=1;" vertex="1" parent="8AFJEiIQBA_v1RYh4N0m-41">
          <mxGeometry y="30" width="160" height="30" as="geometry" />
        </mxCell>
        <mxCell id="8AFJEiIQBA_v1RYh4N0m-43" value="place" style="text;strokeColor=none;fillColor=none;align=left;verticalAlign=middle;spacingLeft=4;spacingRight=4;overflow=hidden;points=[[0,0.5],[1,0.5]];portConstraint=eastwest;rotatable=1;whiteSpace=wrap;html=1;movable=1;resizable=1;deletable=1;editable=1;locked=0;connectable=1;" vertex="1" parent="8AFJEiIQBA_v1RYh4N0m-41">
          <mxGeometry y="60" width="160" height="40" as="geometry" />
        </mxCell>
        <mxCell id="8AFJEiIQBA_v1RYh4N0m-44" value="&lt;font style=&quot;font-size: 8px;&quot;&gt;0x14&lt;/font&gt;" style="rounded=0;whiteSpace=wrap;html=1;movable=1;resizable=1;rotatable=1;deletable=1;editable=1;locked=0;connectable=1;" vertex="1" parent="8AFJEiIQBA_v1RYh4N0m-40">
          <mxGeometry x="130" width="30" height="10" as="geometry" />
        </mxCell>
        <mxCell id="8AFJEiIQBA_v1RYh4N0m-45" value="&lt;font style=&quot;font-size: 8px;&quot;&gt;0x13&lt;/font&gt;" style="rounded=0;whiteSpace=wrap;html=1;movable=1;resizable=1;rotatable=1;deletable=1;editable=1;locked=0;connectable=1;" vertex="1" parent="8AFJEiIQBA_v1RYh4N0m-40">
          <mxGeometry width="130" height="10" as="geometry" />
        </mxCell>
        <mxCell id="8AFJEiIQBA_v1RYh4N0m-46" value="" style="group;movable=1;resizable=1;rotatable=1;deletable=1;editable=1;locked=0;connectable=1;" vertex="1" connectable="0" parent="1">
          <mxGeometry x="410" y="280" width="160" height="110" as="geometry" />
        </mxCell>
        <mxCell id="8AFJEiIQBA_v1RYh4N0m-47" value="&lt;div&gt;next&lt;/div&gt;&lt;div&gt;=&lt;/div&gt;&lt;div&gt;0X05&lt;br&gt;&lt;/div&gt;" style="swimlane;fontStyle=0;childLayout=stackLayout;horizontal=1;startSize=30;horizontalStack=0;resizeParent=1;resizeParentMax=0;resizeLast=0;collapsible=1;marginBottom=0;whiteSpace=wrap;html=1;direction=south;movable=1;resizable=1;rotatable=1;deletable=1;editable=1;locked=0;connectable=1;" vertex="1" parent="8AFJEiIQBA_v1RYh4N0m-46">
          <mxGeometry y="10" width="160" height="100" as="geometry" />
        </mxCell>
        <mxCell id="8AFJEiIQBA_v1RYh4N0m-48" value="2" style="text;strokeColor=none;fillColor=none;align=left;verticalAlign=middle;spacingLeft=4;spacingRight=4;overflow=hidden;points=[[0,0.5],[1,0.5]];portConstraint=eastwest;rotatable=1;whiteSpace=wrap;html=1;movable=1;resizable=1;deletable=1;editable=1;locked=0;connectable=1;" vertex="1" parent="8AFJEiIQBA_v1RYh4N0m-47">
          <mxGeometry y="30" width="160" height="30" as="geometry" />
        </mxCell>
        <mxCell id="8AFJEiIQBA_v1RYh4N0m-49" value="place" style="text;strokeColor=none;fillColor=none;align=left;verticalAlign=middle;spacingLeft=4;spacingRight=4;overflow=hidden;points=[[0,0.5],[1,0.5]];portConstraint=eastwest;rotatable=1;whiteSpace=wrap;html=1;movable=1;resizable=1;deletable=1;editable=1;locked=0;connectable=1;" vertex="1" parent="8AFJEiIQBA_v1RYh4N0m-47">
          <mxGeometry y="60" width="160" height="40" as="geometry" />
        </mxCell>
        <mxCell id="8AFJEiIQBA_v1RYh4N0m-50" value="&lt;font style=&quot;font-size: 8px;&quot;&gt;0X04&lt;/font&gt;" style="rounded=0;whiteSpace=wrap;html=1;movable=1;resizable=1;rotatable=1;deletable=1;editable=1;locked=0;connectable=1;" vertex="1" parent="8AFJEiIQBA_v1RYh4N0m-46">
          <mxGeometry x="130" width="30" height="10" as="geometry" />
        </mxCell>
        <mxCell id="8AFJEiIQBA_v1RYh4N0m-51" value="&lt;font style=&quot;font-size: 8px;&quot;&gt;0X03&lt;/font&gt;" style="rounded=0;whiteSpace=wrap;html=1;movable=1;resizable=1;rotatable=1;deletable=1;editable=1;locked=0;connectable=1;" vertex="1" parent="8AFJEiIQBA_v1RYh4N0m-46">
          <mxGeometry width="130" height="10" as="geometry" />
        </mxCell>
        <mxCell id="8AFJEiIQBA_v1RYh4N0m-52" value="" style="group;movable=1;resizable=1;rotatable=1;deletable=1;editable=1;locked=0;connectable=1;" vertex="1" connectable="0" parent="1">
          <mxGeometry x="660" y="280" width="160" height="110" as="geometry" />
        </mxCell>
        <mxCell id="8AFJEiIQBA_v1RYh4N0m-53" value="&lt;div&gt;next&lt;/div&gt;&lt;div&gt;=&lt;/div&gt;&lt;div&gt;0x07&lt;br&gt;&lt;/div&gt;" style="swimlane;fontStyle=0;childLayout=stackLayout;horizontal=1;startSize=30;horizontalStack=0;resizeParent=1;resizeParentMax=0;resizeLast=0;collapsible=1;marginBottom=0;whiteSpace=wrap;html=1;direction=south;movable=1;resizable=1;rotatable=1;deletable=1;editable=1;locked=0;connectable=1;" vertex="1" parent="8AFJEiIQBA_v1RYh4N0m-52">
          <mxGeometry y="10" width="160" height="100" as="geometry" />
        </mxCell>
        <mxCell id="8AFJEiIQBA_v1RYh4N0m-54" value="3" style="text;strokeColor=none;fillColor=none;align=left;verticalAlign=middle;spacingLeft=4;spacingRight=4;overflow=hidden;points=[[0,0.5],[1,0.5]];portConstraint=eastwest;rotatable=1;whiteSpace=wrap;html=1;movable=1;resizable=1;deletable=1;editable=1;locked=0;connectable=1;" vertex="1" parent="8AFJEiIQBA_v1RYh4N0m-53">
          <mxGeometry y="30" width="160" height="30" as="geometry" />
        </mxCell>
        <mxCell id="8AFJEiIQBA_v1RYh4N0m-55" value="place" style="text;strokeColor=none;fillColor=none;align=left;verticalAlign=middle;spacingLeft=4;spacingRight=4;overflow=hidden;points=[[0,0.5],[1,0.5]];portConstraint=eastwest;rotatable=1;whiteSpace=wrap;html=1;movable=1;resizable=1;deletable=1;editable=1;locked=0;connectable=1;" vertex="1" parent="8AFJEiIQBA_v1RYh4N0m-53">
          <mxGeometry y="60" width="160" height="40" as="geometry" />
        </mxCell>
        <mxCell id="8AFJEiIQBA_v1RYh4N0m-56" value="&lt;font style=&quot;font-size: 8px;&quot;&gt;0X06&lt;/font&gt;" style="rounded=0;whiteSpace=wrap;html=1;movable=1;resizable=1;rotatable=1;deletable=1;editable=1;locked=0;connectable=1;" vertex="1" parent="8AFJEiIQBA_v1RYh4N0m-52">
          <mxGeometry x="130" width="30" height="10" as="geometry" />
        </mxCell>
        <mxCell id="8AFJEiIQBA_v1RYh4N0m-57" value="&lt;font style=&quot;font-size: 8px;&quot;&gt;0X05&lt;/font&gt;" style="rounded=0;whiteSpace=wrap;html=1;movable=1;resizable=1;rotatable=1;deletable=1;editable=1;locked=0;connectable=1;" vertex="1" parent="8AFJEiIQBA_v1RYh4N0m-52">
          <mxGeometry width="130" height="10" as="geometry" />
        </mxCell>
      </root>
    </mxGraphModel>
  </diagram>
</mxfile>
